<svg id="visual" viewBox="0 0 1280 150" width="1280" height="150" xmlns="http://www.w3.org/2000/svg" xmlns:xlink="http://www.w3.org/1999/xlink" version="1.1"><rect x="0" y="0" width="1280" height="150" fill="#001220"></rect><defs><linearGradient id="grad1_0" x1="88.3%" y1="100%" x2="100%" y2="0%"><stop offset="-120.66666666666667%" stop-color="#fbae3c" stop-opacity="1"></stop><stop offset="220.66666666666669%" stop-color="#fbae3c" stop-opacity="1"></stop></linearGradient></defs><defs><linearGradient id="grad1_1" x1="88.3%" y1="100%" x2="100%" y2="0%"><stop offset="-120.66666666666667%" stop-color="#fbae3c" stop-opacity="1"></stop><stop offset="220.66666666666669%" stop-color="#e1685e" stop-opacity="1"></stop></linearGradient></defs><defs><linearGradient id="grad1_2" x1="88.3%" y1="100%" x2="100%" y2="0%"><stop offset="-120.66666666666667%" stop-color="#96446e" stop-opacity="1"></stop><stop offset="220.66666666666669%" stop-color="#e1685e" stop-opacity="1"></stop></linearGradient></defs><defs><linearGradient id="grad1_3" x1="88.3%" y1="100%" x2="100%" y2="0%"><stop offset="-120.66666666666667%" stop-color="#96446e" stop-opacity="1"></stop><stop offset="220.66666666666669%" stop-color="#3d3056" stop-opacity="1"></stop></linearGradient></defs><defs><linearGradient id="grad1_4" x1="88.3%" y1="100%" x2="100%" y2="0%"><stop offset="-120.66666666666667%" stop-color="#001220" stop-opacity="1"></stop><stop offset="220.66666666666669%" stop-color="#3d3056" stop-opacity="1"></stop></linearGradient></defs><defs><linearGradient id="grad2_0" x1="0%" y1="100%" x2="11.7%" y2="0%"><stop offset="-120.66666666666667%" stop-color="#fbae3c" stop-opacity="1"></stop><stop offset="220.66666666666669%" stop-color="#fbae3c" stop-opacity="1"></stop></linearGradient></defs><defs><linearGradient id="grad2_1" x1="0%" y1="100%" x2="11.7%" y2="0%"><stop offset="-120.66666666666667%" stop-color="#e1685e" stop-opacity="1"></stop><stop offset="220.66666666666669%" stop-color="#fbae3c" stop-opacity="1"></stop></linearGradient></defs><defs><linearGradient id="grad2_2" x1="0%" y1="100%" x2="11.7%" y2="0%"><stop offset="-120.66666666666667%" stop-color="#e1685e" stop-opacity="1"></stop><stop offset="220.66666666666669%" stop-color="#96446e" stop-opacity="1"></stop></linearGradient></defs><defs><linearGradient id="grad2_3" x1="0%" y1="100%" x2="11.7%" y2="0%"><stop offset="-120.66666666666667%" stop-color="#3d3056" stop-opacity="1"></stop><stop offset="220.66666666666669%" stop-color="#96446e" stop-opacity="1"></stop></linearGradient></defs><defs><linearGradient id="grad2_4" x1="0%" y1="100%" x2="11.7%" y2="0%"><stop offset="-120.66666666666667%" stop-color="#3d3056" stop-opacity="1"></stop><stop offset="220.66666666666669%" stop-color="#001220" stop-opacity="1"></stop></linearGradient></defs><g transform="translate(1280, 150)"><path d="M-150 0C-146.3 -26.6 -142.6 -53.2 -129.9 -75C-117.2 -96.8 -95.6 -113.9 -72.5 -125.6C-49.4 -137.3 -24.7 -143.6 0 -150L0 0Z" fill="#18223c"></path><path d="M-120 0C-117 -21.3 -114.1 -42.5 -103.9 -60C-93.8 -77.5 -76.5 -91.1 -58 -100.5C-39.5 -109.8 -19.7 -114.9 0 -120L0 0Z" fill="#683a67"></path><path d="M-90 0C-87.8 -16 -85.5 -31.9 -77.9 -45C-70.3 -58.1 -57.4 -68.3 -43.5 -75.3C-29.6 -82.4 -14.8 -86.2 0 -90L0 0Z" fill="#c0526a"></path><path d="M-60 0C-58.5 -10.6 -57 -21.3 -52 -30C-46.9 -38.7 -38.3 -45.5 -29 -50.2C-19.7 -54.9 -9.9 -57.5 0 -60L0 0Z" fill="#f6884d"></path><path d="M-30 0C-29.3 -5.3 -28.5 -10.6 -26 -15C-23.4 -19.4 -19.1 -22.8 -14.5 -25.1C-9.9 -27.5 -4.9 -28.7 0 -30L0 0Z" fill="#fbae3c"></path></g><g transform="translate(0, 0)"><path d="M150 0C130.7 17.2 111.4 34.4 101.3 58.5C91.2 82.6 90.4 113.5 75 129.9C59.6 146.3 29.8 148.1 0 150L0 0Z" fill="#18223c"></path><path d="M120 0C104.6 13.8 89.1 27.5 81.1 46.8C73 66.1 72.3 90.8 60 103.9C47.7 117 23.9 118.5 0 120L0 0Z" fill="#683a67"></path><path d="M90 0C78.4 10.3 66.8 20.7 60.8 35.1C54.7 49.5 54.2 68.1 45 77.9C35.8 87.8 17.9 88.9 0 90L0 0Z" fill="#c0526a"></path><path d="M60 0C52.3 6.9 44.6 13.8 40.5 23.4C36.5 33 36.1 45.4 30 52C23.9 58.5 11.9 59.3 0 60L0 0Z" fill="#f6884d"></path><path d="M30 0C26.1 3.4 22.3 6.9 20.3 11.7C18.2 16.5 18.1 22.7 15 26C11.9 29.3 6 29.6 0 30L0 0Z" fill="#fbae3c"></path></g></svg>