<?xml version="1.0" encoding="UTF-8"?>
<svg version="1.1" viewBox="0 0 2048 240" width="1280" height="1280" xmlns="http://www.w3.org/2000/svg">
<path transform="translate(0)" d="m0 0h2048v240h-2048z" fill="#FDFDFD"/>
<path transform="translate(1903)" d="m0 0h145v103l-2-4-5-12-2 1v-2l-7 4-4 2 2 2-9-1 2 4-5-2-3-1v2l5 2-2 1h-2l7 4v2h11l3-1v2l-3 2h-8l-6-1-4 2 4 2-7 1-1 2-5-4-2-1-2 2 2 4 4 3h-14l-1 3 4 1v2l3 1v1h-7v2l5 2v1l-8 1-2 3h5l-4 3 3 2-4 1-1-3-2 2v2h2v2l-8-1-8-3-4-6 1-2 2 1 4-2 3-8 2-4v-4h2l-1-6-4-1-3 1-1 2v6l1 4 3 1-2 1-6-2-5-4-1 4-3-2-2 7-1-4h-2l1 4 4 4-9-2-7-6-1-7-2-2v-5l12-9 8-5h2l1-5-1-3 3-5 2-4-2-5v-3h2l1 5h2l-3-19-1-3 3 1 4 6h1v-7l-2-4 4 2 2 3 1-8-3-6-2-1v-2l4 2 5 6 1 3v7h2l2-9-3-5 1-2 3 3v2h2v2h2l1-4 1 1-1-6-5-8 2-1 6 10v3l4-1 3-6-1-9-4-8-8-4-6 1-1 6-2-4 4-4h2l-4-4-13-2-13 1v2h-2l1 2 2-1-2 8-2-1-1-9-14 5-19-2 3 2-1 2-4-2-5-4-10-1-2-2 7-1-7-3z" fill="#DEDEDE"/>
<path transform="translate(0)" d="m0 0h142l-4 3-2 1 7 1-2 2-10 1-8 6-2-4h-8l-4 2-9-2-8-3-2-1-1 2-10-3h-8l-10 2v2h-4v2l5 2 1 5-2 1v-5l-7-2-5 3h-2l-4 7-1 3v9l4 6 2 1 1-6 5-5-2 5-2 4 1 3h5l4-4-2 6-1 2 3 7h1v-6l5-8 9-7v3l-6 4-2 3v11l2 1 1-4 3-2-2 4-1 7 3-1 5-6v3l-1 11-2 7h3l2-4v5l-5 1 8 10-1 2-7-8-2 2-6-5-4-9-15-12-13-10-8-8-3-4v-2l-2 2 3 5 7 9h4l1 4 9 10 4 5 3 3-2 1 2 3-4-2-2-2 1 6-4-4-5-9v3l8 16v3l-5-6-6-12-3-10-2-4 3 12 4 11 5 7v5l-7-6 3 5-1 2-5-2 1-2-7-5-7-2 14 11 2 2-5-1-3-1v-3l-15 1 17 6 10 3 5 1 1 3 4 2 4 3h8l-4 2h3l10-2 4 4 1 7-3-4-1-2-5-1-2 1-1 6h2l1 7h2l5-4-1 5-4 2 3 6 5 1 2 1-5 8-11 3h-6v-2l-4-2v-1h5l-1-3h2v-2l-12-3 3-2 4-1v-3h-5l-5 3-2-1 8-6h2l-1-3-4-1-12 2 2-2 3-1v-3l2-2-1-2-7 4-8-2 2-2-1-3-8 2h-6l-1-2 11-1-1-2 10-5-6 1 3-3h3v-2l-8 4h-2l-1 3-5 3h-2v-2l2-1-1-2h5l-4-3h7l2-2h-8l1-2-7-4h-4-2l-4 9h-1z" fill="#232324"/>
<path transform="translate(2047,36)" d="m0 0h1v67l-2-4-5-12-2 1v-2l-7 4-4 2 2 2-9-1 2 4-5-2-3-1v2l5 2-2 1h-2l7 4v2h11l3-1v2l-3 2h-8l-6-1-4 2 4 2-7 1-1 2-5-4-2-1-2 2 2 4 4 3h-14l-1 3 4 1v2l3 1v1h-7v2l5 2v1l-8 1-2 3h5l-4 3 3 2-4 1-1-3-2 2v2h2v2l-8-1-8-3-4-6 1-2 2 1 4-2 3-8 2-4v-4h2l-1-6-4-1-3 1-1 2v6l1 4 3 1-2 1-6-2-5-4-1 4-3-2-2 7-1-4h-2l1 4 4 4-9-2-7-6-1-7-2-2v-5l12-9 8-5h2l1-5-1-3 5-3 2-1 1 9 2 3-1 1h9l6-4 7-7h2v-3l-2-1 8-10 4-8 4-3-3 9-6 12-6 7 5-5 6-9 4-10 3-9 3-3-1 7-1 4 18-10 10-9z" fill="#EBEBEB"/>
<path transform="translate(0,115)" d="m0 0 1 2 4-2h6l2 2-5 2-3 4v-3h-2l2 5 5 11v2h2l6 9v2h4l-1-3 4 1-1 1 8-1-1 2-3 1h-7l4 11 3 8 2 7v16l-3 17 2 1 2 6 7 7 3 1 4-6v3l-1 6 2 3-5-2-9-7-6-7-5 5-5 8v3l-2 1v5l-2 4h-12z" fill="#E2E2E2"/>
<path transform="translate(2030,145)" d="m0 0 1 2-6 10-5 15-2 11 5-1v-6h1v6h3l1-2 3 1 1-3 1 2 1-8-2 3-1-5-2-1-1 4v-4l-2-1h6l1-5 1 2 3-1v29l5 15 3 1-4-12-2-17 2-12 4-12 3-3v87h-86l-1-2 19-2-3-3 1-2 3 1v2l11-1v-4l4 1 4-1 2-2 1-5 3 2 5-4h2l2-4 2-3v-3l-5-4 4 1 2 1-1-11-1-5v-10l1-5-1-2 4-12 5-12-3-2-1-3 4 1 3 1z" fill="#888787"/>
<path transform="translate(22,31)" d="m0 0h2l7 9 11 10 16 12 7 6 4 9 8 6v6l5-1-1 3h2l2 3 6 3v2l6 2 8 7 1 3-3 5-1 7-9 6-7 1 1-7-2-1 1-2-4 1 1-4-5 3-4 2-1-2-6 4-2-7 1-2h-2v-6l5-2 4 2 2 3-2-6-4-1-11 3v-2l1-1-7-1-6-5-3-3-10-2-12-4-9-4 4-1h12v3l6 1-14-11-1-2 5 1 6 3 5 5 3 1-3-4 1-2 6 6-1-5-6-10-5-17 1-3 4 7 4 13 6 10h1l-8-16-1-5 5 5 5 8-1-5 6 4-2-3 2-1-11-11v-2l-3-1-3-5-4-2-7-9-3-5z" fill="#E5E5E5"/>
<path transform="translate(0,47)" d="m0 0 3 1 4 4 2 1 2 4 5 3 2 1v3l-4-2-8-7 6 7 2 3 6 2 9 7 8 5-4-5v-10l2 3 4 10 4 5v5l-7-6 3 5-1 2-5-2 1-2-7-5-7-2 14 11 2 2-5-1-3-1v-3l-15 1 17 6 10 3 5 1 1 3 4 2 4 3h8l-4 2h3l10-2 4 4 1 7-3-4-1-2-5-1-2 1-1 6h2l1 7h2l5-4-1 5-4 2 3 6 5 1 2 1-5 8-11 3h-6v-2l-4-2v-1h5l-1-3h2v-2l-12-3 3-2 4-1v-3h-5l-5 3-2-1 8-6h2l-1-3-4-1-12 2 2-2 3-1v-3l2-2-1-2-7 4-8-2 2-2-1-3-8 2h-6l-1-2 11-1-1-2 10-5-6 1 3-3h3v-2l-8 4h-2l-1 3-5 3h-2v-2l2-1-1-2h5l-4-3h7l2-2h-8l1-2-7-4h-4-2l-4 9h-1z" fill="#C8C8C8"/>
<path transform="translate(1983)" d="m0 0h65v13l-2 7-7 11-6 9-4 12-2 1v-6l-8 9h-1v-7l8-16 1-12v-2l-10-3-1-3-3 1 1 4 5 1 5 6-1 3-5-2-2-4 1 3v13l-2-4-2 6-3 2-4 2-6 4h-2l1-5 5-5 2-4v-8l-4-10-6-7-10-6z" fill="#E6E6E6"/>
<path transform="translate(32)" d="m0 0h110l-4 3-2 1 7 1-2 2-10 1-8 6-2-4h-8l-4 2-9-2-8-3-2-1-1 2-10-3h-8l-10 2v2h-4v2l5 2 1 5-2 1v-5l-7-2-5 3h-2l-3 4h-2l-2 8 1 9 5 6 2 1v5h-3l-7-6-5-2-2-4-2 1v-13l-5 5-2-4 4-5 3-2h3l2-5 7-8-8 4h-3l2-4 4-2-4-1z" fill="#EFEFEF"/>
<path transform="translate(2047,47)" d="m0 0h1v56l-2-4-5-12-2 1v-2l-7 4-4 2 2 2-9-1 2 4-5-2-3-1v2l5 2-2 1h-2l7 4v2h11l3-1v2l-3 2h-8l-6-1-4 2 4 2-7 1-1 2-5-4-2-1-2 2 2 4 4 3h-14l-1 3 4 1v2l3 1v1l-9-1v3h-3l2-4-1-1-1-2 5-10 5-4 8-1-9-3-4 1 5-5 2-1 1 3 10 5h2l-2-1v-2l-5-1v-1l8 1h2l-15-5 4-2 19-6 8-3h-14l-7 5h-5l2-2 6-3 11-9-8 3-6 4 1 2-5 3-2-1 6-9 5-5 11-8 5-1 2-4 9-9z" fill="#1E1E1F"/>
<path transform="translate(30)" d="m0 0h2l1 2h5l-3 3-4 2-1 2 10-5 2 1-8 9-2 4-7 4-2 4 2 2 4-6 1 3v11l1-8h1l1 9 2-1v5l4 1 8 6 1-5-4-2-4-5-1-9 3-8 1 3-1 3v9l4 6 2 1 1-6 5-5-2 5-2 4 1 3h5l4-4-2 6-1 2 3 7h1v-6l5-8 9-7v3l-6 4-2 3v11l2 1 1-4 3-2-2 4-1 7 3-1 5-6v3l-1 11-2 7h3l2-4v5l-5 1 8 10-1 2-7-8-2 2-6-5-4-9-15-12-13-10-8-8-3-4v-2l-2 2-1 3-3-6v-10h-2v7h-2l-7-10-1-5 6 8h2l1-3 2-1 1-5 7-2 6-5z" fill="#1D1D1E"/>
<path transform="translate(13,150)" d="m0 0h5l7 14 3 11v21l-3 12-5 10-3 4-3 1-2 4-5 6-3-1-2 3h-2v-26l4-11 2-12 1-16 2-2 1 3 1 12-3 16-2 6-2 1 1 2-2 5 2-1 1-4h5l2-4 2-1 4 2 1-2-7-1-4-1 2-7 7-1 1-1h-7l1-4 3-1-2-1-1-4 10 1-3-1v-11l-3-7-2-1-1-7-2-2z" fill="#EAEAEA"/>
<path transform="translate(2047,109)" d="m0 0h1v44l-4 8-3 10-1 10 2 16 3 9v3l-4-1-5-15v-28l-3-1-1 4-3 1 4 2h2l-1 10h-3l-13 2 1-11 6-17 5-8 2-5 7-11 2-7-2-1-1-4-5-2 1-2h6v2l3 1v4z" fill="#E4E4E4"/>
<path transform="translate(1903)" d="m0 0h80l10 6 8 7 5 10 1 3v8l-5 8-3 2-1 4 8-5 4-2 3-2 2-7h1l1 7-10 10-19 14-6 5-2 6-2-4 1-8 5-5 2-1-2 4-3 4 1 1 5-5 3-6h3l3-5 1-5h-2l-2 7-1-4 2-6 2 1-1-6-5-8 2-1 6 10v3l4-1 3-6-1-9-4-8-8-4-6 1-1 6-2-4 4-4h2l-4-4-13-2-13 1v2h-2l1 2 2-1-2 8-2-1-1-9-14 5-19-2 3 2-1 2-4-2-5-4-10-1-2-2 7-1-7-3z" fill="#C3C3C3"/>
<path transform="translate(0,47)" d="m0 0 3 1 4 4 2 1 2 4 5 3 2 1v3l-4-2-8-7 6 7 2 3 6 2 9 7 8 5-4-5v-10l2 3 4 10 4 5v5l-7-6 3 5-1 2-5-2 1-2-7-5-7-2 14 11 2 2-5-1-3-1v-3l-15 1 17 6 10 3 5 1v3l-4-1-13 5-6 1 4-3 6-3-6 1 3-3h3v-2l-8 4h-2l-1 3-5 3h-2v-2l2-1-1-2h5l-4-3h7l2-2h-8l1-2-7-4h-4-2l-4 9h-1z" fill="#232223"/>
<path transform="translate(25,213)" d="m0 0 7 6v2l4 2 8 6 17 5 7-3v-7l-2-4 3 1 2 4-1 7-3 3 13 2h5l7-3 6 1v1l-6 1 3 3h-83l1-9 3-6z" fill="#EAEAEA"/>
<path transform="translate(2020,213)" d="m0 0 5 5 6 8 2 6 2 8h-73l-1-2 19-2-3-3 1-2 3 1v2l11-1v-4l4 1 4-1 2-2 1-5 3 2 5-4 5-3z" fill="#C2C2C2"/>
<path transform="translate(2028,182)" d="m0 0h5l-2 5 4 3v2h-4l-4-1-1-2-2 1h2l2 3 7 1 4 10v2l-4 1 6 2v3l-9 1 1 3v-2l7-1 3 1v-4h4l1 2v22l-4 1-6-4-11-12-7-14-2-11v-10z" fill="#E9E8E8"/>
<path transform="translate(1974,102)" d="m0 0h7l8 1h7l3-1 8 3 1 2-9 1-5 4-4 10h5l-5 4-1 2h3v-3l2 1v2l5 2v1l-8 1-2 3h5l-4 3 3 2-4 1-1-3-2 2v2h2v2l-8-1-8-3-4-6 1-2 2 1 4-2 3-8 2-4v-4h2l-1-6-4-1-3 1-1 2v6l1 4 3 1-2 1-3-2-2-10 3-5 6-2-5-1z" fill="#CAC9CA"/>
<path transform="translate(0)" d="m0 0h30l2 4-8 7h-6v5l-3 1-1 4-4-2-3-4 6 9 1 3h2v-7l3-1v11l9 18v8l-5-4-4-10-4-4-2-5-5-6v-2h-2l-1-3h2v-2l-3 1-4-5z" fill="#E4E3E3"/>
<path transform="translate(2047,13)" d="m0 0h1v23l-6 8-7 7-10 6-9 5h-2l1-9-3 6-4 12-6 10-6 7-2-1 6-7 6-12 3-8-4 5-4 8-3 2 2-6-5 3-1-2-11 9-2-1 13-11 7-5-1 4 9-10 4-5 1-4 7-8 4-9 2-5 1 2-2 8-7 14v6l8-9 1 4 2-5 6-12 8-11 2-3z" fill="#272728"/>
<path transform="translate(22,31)" d="m0 0h2l7 9 11 10 16 12 7 6 4 9 5 4 1 2v7l-4 1v-3-5l-5-4 5 5-1 4-4-1v-2l-5-2-7-3-4-3v-2h-2l-2-4 1-3 4 3-1-2 2-1-11-11v-2l-3-1-3-5-4-2-7-9-3-5z" fill="#E5E4E4"/>
<path transform="translate(1983)" d="m0 0h16v2h3v2l5 2 6 8 1 4 5 1 5 6-1 3-5-2-2-4 1 3v13l-2-4-2 6-3 2-4 2-6 4h-2l1-5 5-5 2-4v-8l-4-10-6-7-10-6z" fill="#F3F3F3"/>
<path transform="translate(1979)" d="m0 0 5 1 9 5 8 7 5 10 1 3v8l-5 8-3 2-1 4 8-5 4-2 3-2 2-7h1l1 7-10 10-19 14-6 5-2 6-2-4 1-8 5-5 2-1-2 4-3 4 1 1 5-5 3-6h3l3-5 1-5h-2l-2 7-1-4 2-6 2 1-1-6-5-8 2-1 6 10v3l4-1 3-6-1-9-4-8-8-4-6 1-1 6-2-4 4-4h2l-4-4-13-2-13 1v2h-2l1 2 2-1-2 8-2-1-1-9-5 2-4-1 8-3 8-2 20-1z" fill="#2C2C2C"/>
<path transform="translate(13,150)" d="m0 0h5l7 14 3 11v21l-6 2h-2l-1 4h-6l-4-1 2-7 7-1 1-1h-7l1-4 3-1-2-1-1-4 10 1-3-1v-11l-3-7-2-1-1-7-2-2z" fill="#DCDBDB"/>
<path transform="translate(86)" d="m0 0h56l-4 3-2 1 7 1-2 2-10 1-8 6-2-4h-8l-4 2-9-2-8-3 4-1h2l-12-5z" fill="#F8F8F8"/>
<path transform="translate(2047,109)" d="m0 0h1v36l-7 11-1 2-4-1h-3l-2 1 2-4 1-3-5-1 3-8 7-11 2-7-2-1-1-4-5-2 1-2h6v2l3 1v4z" fill="#DFDFDF"/>
<path transform="translate(2047,36)" d="m0 0h1v11l-6 8-8 8-1 3-5 1-11 8-6 4h-2l2-4h2l1-13 18-10 10-9z" fill="#EFEFEF"/>
<path transform="translate(25,213)" d="m0 0 7 6-1 5v2l3 3h5v2l-5 1-4-3 2 6 3-2 3 3-1 4h-25l1-9 3-6z" fill="#B7B7B7"/>
<path transform="translate(15,145)" d="m0 0 3 2v2h4l-1-3 4 1-1 1 8-1-1 2-3 1h-7l4 11 3 8 2 7v16l-3 17 2 1 2 6 7 7 3 1 4-6v3l-1 6 2 3-5-2-9-7-6-7-5 5-5 8v3l-2 1v5l-2 4h-12v-5l5-4v2l8-8 1-4 3 1 8-16 2-10v-21l-5-16-6-11z" fill="#2A2A2B"/>
<path transform="translate(0,39)" d="m0 0 5 5 9 8 18 10 2 9 1 4 2 4-5-2-13-10-6-1-3-5-5-5 1-2 10 9 2 1-2-3-6-4-3-4-4-3v-2l-3-1z" fill="#eee"/>
<path transform="translate(2030,145)" d="m0 0 1 2-6 10-5 15-1 12v10l3 14 6 11 12 13h3l1 2h4v6h-13l-3-9-2-2-1-4-6-8-3-3-7 6 2-4 2-3v-3l-5-4 4 1 2 1-1-11-1-5v-10l1-5-1-2 4-12 5-12-3-2-1-3 4 1 3 1z" fill="#2C2C2D"/>
<path transform="translate(0)" d="m0 0h5l1 12 5 10 3 3v2h2v-7l3-1v11l9 18v8l-5-4-4-10-4-4-2-5-5-6v-2h-2l-1-3h2v-2l-3 1-4-5z" fill="#E6E5E5"/>
<path transform="translate(2007)" d="m0 0h27l6 5v7l-4 7-3 2-1-3 1-4h-2v3h-2l-1-5-5-1-9-7-7-3z" fill="#ECECEC"/>
<path transform="translate(2e3 98)" d="m0 0 4 4 8 4h2l-2-1v-2l-5-1v-1l8 1 4 1 1-2 3 3v1h11l3-1v2l-3 2h-8l-6-1-4 2 4 2-7 1-1 2-5-4-2-1-2 2 2 4 4 3h-14l-1 3 4 1v2l3 1v1l-9-1v3h-3l2-4-1-1-1-2 5-10 5-4 8-1-9-3-4 1 5-5z" fill="#323233"/>
<path transform="translate(8,168)" d="m0 0 2 3 1 12-3 16-2 6-2 1 1 2-2 5 2-1 1-4h5l2-4 2-1 4 2-4 4-1 4-7 14-4-2 2-4-1-5-4 2v-9l4-11 2-12 1-16z" fill="#F3F3F3"/>
<path transform="translate(2011,220)" d="m0 0 2 1-8 7-5 4v2l8-1 2 4v3h-48l-1-2 19-2-3-3 1-2 3 1v2l11-1v-4l4 1 4-1 2-2 1-5 3 2z" fill="#D9D9D9"/>
<path transform="translate(63,46)" d="m0 0 2 4v3l4 1 1-4 3-2-2 4-1 7 3-1 5-6v3l-1 11-2 7h3l2-4v5l-5 1 8 10-1 2-7-8-2 2-6-5v-11l-3-8-1-2z" fill="#C7C7C7"/>
<path transform="translate(34,101)" d="m0 0h5l-5 4 4-1 2 1-1 1 10 2 5 5 2 9h-5v-4l-4-1-12 2 2-2 3-1v-3l2-2-1-2-7 4-8-2 2-2-1-3-8 2h-6l-1-2 11-1z" fill="#5C5C5D"/>
<path transform="translate(1975,36)" d="m0 0 4 2 5 6 1 3v7h2l2-9-3-5 1-2 3 3v2h2l1 6 2-5h2l-1 7-5 5-3 4-5 5-3 2 1-4 4-6-3 3-2-1 2-3v-5l-3 6-5 7-2-3-1 7h-1l-2-13-1-3 3 1 4 6h1v-7l-2-4 4 2 2 3 1-8-3-6-2-1z" fill="#494849"/>
<path transform="translate(30)" d="m0 0h2l1 2h5l-3 3-4 2-1 2 10-5 2 1-9 8-7 4-3 1-1 9 1 4-1 5-3-3-1-3v-10h-2v7h-2l-7-10-1-5 6 8h2l1-3 2-1 1-5 7-2 6-5z" fill="#C6C6C6"/>
<path transform="translate(52,104)" d="m0 0h10l-4 2h3l10-2 4 4 1 7-3-4-1-2-5-1-2 1-1 6h2l1 7h2l5-4-1 5-4 2 3 6 5 1 2 1-4 6-1-2v-1l-5 1 2-1-1-2-3 1-3-5v-1-3l-1-1-1-3h2v-2l-3 1-1-4 1-1h-2l-3-7z" fill="#242425"/>
<path transform="translate(2043,210)" d="m0 0h4l1 2v22l-4 1-4-4-6-11-1-6 7-1 3 1z" fill="#9F9E9F"/>
<path transform="translate(1963,86)" d="m0 0 5 5-3 3-1 2 4 2-3 5-6 5-3 4-2-1 1-2h-2v2h-2l-1-4-4 2v-2l-3 3 2 4 1 3h-2l-3-4v-5l12-9 8-5h2l1-5z" fill="#919191"/>
<path transform="translate(13,150)" d="m0 0h5l7 14 3 11v8l-4 1-1-2h-3v-11l-3-7-2-1-1-7-2-2z" fill="#DBDBDB"/>
<path transform="translate(2047,157)" d="m0 0h1v49l-3-4-3-12v-19l4-13z" fill="#F2F2F2"/>
<path transform="translate(9,164)" d="m0 0 3 2v14l7 1v-5l-3-1h4v7h3l1-3v10h-1v-6h-9v3l3 1-4 2-1 3h2l1-2v2h4l-1 2-7 1-1 4-1 2 4-1v2h7l2-1-2 5-2 1v-2l-4-1-3 4-5 1-1 3 4 1-7 1 2-6v-3h2l3-14 1-9z" fill="#868585"/>
<path transform="translate(2015,32)" d="m0 0h1l1 7-10 10-19 14-6 5-2 6-2-4 1-8 5-5 2-1-2 4-3 4 1 1 5-5 3-6h3l4-7 5-1 6-5 4-1z" fill="#1D1D1E"/>
<path transform="translate(2020,213)" d="m0 0 3 3-1 5-7 7-2 4-2 3-4-1-7 1v-4l11-9z" fill="#E6E5E5"/>
<path transform="translate(1974,102)" d="m0 0h7l8 1 5 1-5 7-4-1 2 2 1 2-2 2-2-1v2h2l-2 4-2-1v2l3 1-5 1v-9h2l-1-6-4-1-3 1-1 2v6l1 4 3 1-2 1-3-2-2-10 3-5 6-2-5-1z" fill="#1D1D1E"/>
<path transform="translate(74,81)" d="m0 0 3 2v6l5-1-1 3h2l2 3 6 3v2l4 2-3 1-2 3 1 5 1 2-3-1-4-5-2-1v-2l-3-1-2-4 4-4-2-2h-5v3l-4 1-1-5 5-1z" fill="#999"/>
<path transform="translate(2014,51)" d="m0 0v3l-6 17-6 10-6 7-2-1 6-7 6-12 3-8-4 5-4 8-3 2 2-6-5 3-1-2-11 9-2-1 13-11 7-5-1 4 9-10z" fill="#1D1D1E"/>
<path transform="translate(2042,162)" d="m0 0 1 2-2 7-1 10 2 16 3 9v3l-4-1-5-15v-20l1-4h2l1-6z" fill="#DCDBDB"/>
<path transform="translate(2021,93)" d="m0 0h10l4 2-3 2-5 1-1 2 9-1 2-1-1 3-4 1v2h2v2h-11l-5-5-7-3v-1l8 1-4-2v-2l4 1h2z" fill="#D9D8D8"/>
<path transform="translate(2045,53)" d="m0 0h3v29l-5-5-3-4 4 2-5-5-2-4v-2h3l1-4 4 1-3-5h2z" fill="#B9B9B9"/>
<path transform="translate(1952)" d="m0 0h27l4 2v1l-21 1-15 4-3 3-7 1-2-2 8-3 5-2-2-2z" fill="#A9A9A9"/>
<path transform="translate(60,2)" d="m0 0 4 1h20l8 2-2 1-1 2-10-3h-8l-10 2v2h-4v2l5 2 1 5-2 1v-5l-7-2-5 3h-2l-4 4 2-5 4-5z" fill="#2E2E2E"/>
<path transform="translate(110)" d="m0 0h32l-4 3-2 1 7 1-2 2-10 1-8 6-2-4 5-1 1-2h-3l-1-3-13-3z" fill="#989798"/>
<path transform="translate(2045)" d="m0 0h3v13l-2 7-7 11-6 9-4 12-2 1v-13l4-4 6-9 3-5 1-2 3-3 1-14z" fill="#838283"/>
<path transform="translate(48,75)" d="m0 0h2l5 5 8 3 5 5 2 7h-6l-8-6-4-5-2-1v-4z" fill="#888788"/>
<path transform="translate(2e3 107)" d="m0 0h5l-1 4 2 4 4 3h-14l-1 3 4 1v2l3 1v1l-9-1v3h-3l2-4-1-1-1-2 5-10z" fill="#3E3E3F"/>
<path transform="translate(2e3 75)" d="m0 0v3l-2 2 1 4-8 7-3 3h-7l-1-4-1-2 5-3 7-5 6-2z" fill="#494849"/>
<path transform="translate(46,68)" d="m0 0 6 4-2-3h3l4 4 5 4 9 7-1 4-4-1v-2l-5-2-7-3-4-3v-2h-2l-2-4z" fill="#F1F1F1"/>
<path transform="translate(2e3 68)" d="m0 0 1 2-6 8-2 2-6 2-6 4-2 2h-3v-5l11-8 7-6 2 1z" fill="#F0F0F0"/>
<path transform="translate(0,16)" d="m0 0 5 4h2l-1 5h2l7 9 2 8 2 6v5l-2-1-4-12-6-10-4-5 2 4-1 4-4 2z" fill="#8D8D8D"/>
<path transform="translate(25,213)" d="m0 0 7 6-1 5v2l3 3h5v2l-5 1-2-2-8-3h-3l-2-3 1-5z" fill="#C5C5C5"/>
<path transform="translate(2047,145)" d="m0 0h1v8l-5 9-3 1-1 6h-2l-1-4-4-1-1-6 4-3 5 3 2-6z" fill="#F5F5F5"/>
<path transform="translate(86)" d="m0 0h11l15 5v1l-11-1 7 2 17 1-4 2h-8l-4 2-9-2-8-3 4-1h2l-12-5z" fill="#585858"/>
<path transform="translate(14,203)" d="m0 0 5 1-2 4-2 1-1 4-7 14-4-2 2-4-1-7 2-6h5l2-4z" fill="#F8F8F8"/>
<path transform="translate(2015,51)" d="m0 0 1 4-2 13-1 7-4 4v3l-5 5-1-4h3l1-2-4-1 2-5 5-12 3-9z" fill="#D7D7D7"/>
<path transform="translate(12)" d="m0 0h18l2 4-6 5-5-4-5 3-4-1-3-4z" fill="#F3F3F3"/>
<path transform="translate(0,161)" d="m0 0 2 4 2 5 1 16-3 15-2 1z" fill="#E8E7E7"/>
<path transform="translate(1982,46)" d="m0 0h1v10l-4 9v9l-1 2-3-1v-1h-2l-2-6v-10l3 4 6-8z" fill="#EDEDED"/>
<path transform="translate(2e3)" d="m0 0h8l8 4 8 6 5 2 1 5-9-6-5-1-1 2v-2h-2l-1 2-5-6-4-2v-2h-3z" fill="#4B4B4C"/>
<path transform="translate(2047,153)" d="m0 0 1 4-3 7-2 7v19l3 12 2 4v6l-3-3-4-12-2-17 2-12 4-12z" fill="#1D1D1E"/>
<path transform="translate(15,145)" d="m0 0 3 2v2h4l-1-3 4 1-1 1 8-1-1 2-3 1h-7l4 11 3 8 2 7v16l-3 14-1-4 1-6v-21l-5-16-6-11z" fill="#1D1D1E"/>
<path transform="translate(34,101)" d="m0 0h5l-5 4 4-1 2 1-1 1 3 2-8 5-8-2 2-2-1-3-8 2h-6l-1-2 11-1z" fill="#363637"/>
<path transform="translate(1949)" d="m0 0 3 1-4 2 2 2-10 4-4 1h-11l-5-1 3-2-1-2 16-1z" fill="#727272"/>
<path transform="translate(67,107)" d="m0 0 6 2 2 3-1 6-5 5-2 1-2-7 1-2h-2v-6z" fill="#E6E6E6"/>
<path transform="translate(13,229)" d="m0 0 6 2 3-2 4 4v6l2 1h-16l1-9z" fill="#D9D8D8"/>
<path transform="translate(1977,107)" d="m0 0 5 2v6h-2l1 4-1 5-4-1-4-6v-6l2-3z" fill="#DFDFDF"/>
<path transform="translate(71,4)" d="m0 0h8l10 3 2 1-1 8-3 5-2-1 2-6-1-4-8-2-17 1-2-2z" fill="#A4A3A3"/>
<path transform="translate(1986,38)" d="m0 0 4 3v2h2l1 6 2-5h2l-1 7-5 5-3 4-5 5-3 2 1-4 4-5 1-4 3-9-3-5z" fill="#454445"/>
<path transform="translate(4,60)" d="m0 0h2l1 4h2v2l-1 1 2 1-2 2 5-1-5 4-8 6v-17l2-1 2 1z" fill="#A8A8A8"/>
<path transform="translate(2043,210)" d="m0 0h4l1 2v13l-2-1v2h-2l-2-8h3v-2l-4 2 1 3-5 1-4-6v-2l7-1 3 1z" fill="#EBEBEB"/>
<path transform="translate(2030,145)" d="m0 0 1 2-6 10-5 15-1 12v10l1 4v7l-2-2-2-11v-10l1-5-1-2 4-12 5-12-3-2-1-3 4 1 3 1z" fill="#1D1D1E"/>
<path transform="translate(2033,163)" d="m0 0 1 2 3-1-1 23h-3v-5l-12 2-2-1 4-1v-6h1v6h3l1-2 3 1 1-3 1 2 1-8-2 3-1-5-2-1-1 4v-4l-2-1h6z" fill="#999"/>
<path transform="translate(0,156)" d="m0 0 2 1 4 14 1 7v8l-3 16-3 7h-1v-7l2-5 2-11-1-16-3-9z" fill="#1D1D1E"/>
<path transform="translate(2012,12)" d="m0 0 4 1 1 2 7 3 1 2v7l-3 6-4 4-3-15 1-3 2 7 5 2-1-5-4-4-4-1z" fill="#1D1D1E"/>
<path transform="translate(66,102)" d="m0 0h7l5 6 4 8-6 6h-2v-7h2l-3-9-4-1-11 3v-2l4-1v-2z" fill="#838384"/>
<path transform="translate(63)" d="m0 0h23l12 5 1 2-11-2-4-1h-23z" fill="#ECECEC"/>
<path transform="translate(66,220)" d="m0 0 3 1 2 4-1 7-3 3 13 2h5l7-3 6 1v1l-6 1 3 3-9-1h-13l-17-4v-1h6l2-2 4-1v-7z" fill="#555455"/>
<path transform="translate(4,215)" d="m0 0h1v6l2 1-3 3 3 2 2-6 3-3-2 6-4 7-4 4h-2v-17z" fill="#929292"/>
<path transform="translate(2e3 108)" d="m0 0 6 3 7 6 5 1-3 3-8-1-2-1v-2l-5-2-3-4 1-2 1 1z" fill="#D8D8D8"/>
<path transform="translate(26,158)" d="m0 0 2 3 2-2 1 9 4 7 8 5 3 2h-9l-7-4-5-17z" fill="#A6A5A5"/>
<path transform="translate(26,206)" d="m0 0 1 3 2 1 2 6 7 7 3 1 4-6v3l-1 6 2 3-5-2-9-7-6-7-5 5-2-1 6-11z" fill="#252526"/>
<path transform="translate(2026,169)" d="m0 0 7 1 1 1h1l-1 10h-3l-7 1v-6z" fill="#F8F8F8"/>
<path transform="translate(1963,86)" d="m0 0 5 5-3 3-1 2 4 2-2 3-1-3-5-1-6 6v-2l-3 3-3 5-2-1h-1l-2 4 3 3v2h-2l-3-4v-5l12-9 8-5h2l1-5z" fill="#484849"/>
<path transform="translate(37,60)" d="m0 0 5 5 7 12 3 4h-2v2l2 1v2l1 2-5-2-2-5-8-16z" fill="#D7D7D7"/>
<path transform="translate(2034)" d="m0 0h8v11l-5 10-5 6-2-3-1-7h2v-3h2v6l5-5 1-3v-7z" fill="#505050"/>
<path transform="translate(35,47)" d="m0 0 2 4 9 10 4 5 3 3-2 1 2 3-4-2-9-11-8-9 1-3z" fill="#A09FA0"/>
<path transform="translate(1972,103)" d="m0 0h7l2 2-7 1-3 5 2 10h-4l-6-7v-2l3 1 4-8z" fill="#C7C6C6"/>
<path transform="translate(8,198)" d="m0 0 2 1-1 2 4-1v2h7l2-1-2 5-2 1v-2l-4-1-3 4-5 1-1 3 4 1-7 1 2-6v-3h2z" fill="#A1A0A0"/>
<path transform="translate(2009,59)" d="m0 0 1 2-6 14-7 10-1-4-2-1 8-10 4-8z" fill="#E9E9E9"/>
<path transform="translate(41,108)" d="m0 0 2 4-3 2v3l-5 1v2l-7 1-3-3 4-1 8-7z" fill="#E7E7E7"/>
<path transform="translate(2047,109)" d="m0 0h1v8l-3 10-6 8-1-2 3-9-2-1-1-4-5-2 1-2h6v2l3 1v4z" fill="#1D1D1E"/>
<path transform="translate(2047,42)" d="m0 0h1l-1 7-9 10-4 5-1 2h-4l-1-3 2-3 8-4 2-4 3-4h2z" fill="#C3C2C2"/>
<path transform="translate(42,19)" d="m0 0 1 3-1 3v9l4 6 2 1 1-6 5-5-2 5-2 4 1 3 2 1 2 6-1 4-3-9h-2l-1 2v-3l-4-2-4-5-1-9z" fill="#1D1D1E"/>
<path transform="translate(2028,150)" d="m0 0 6 1-1 4-4 9-2 3-1-4-2-1 1-7z" fill="#F2F2F2"/>
<path transform="translate(13,150)" d="m0 0h5l5 9v3l-5 1-2-2-2-5-2-2z" fill="#F6F6F6"/>
<path transform="translate(0,115)" d="m0 0 1 2 4-2h6l2 2-5 2-3 4v-3h-2l2 5 5 11-1 2-6-10-2-2-1-3z" fill="#1D1D1E"/>
<path transform="translate(29,94)" d="m0 0h3v2l-2 1h5l-3 2-7 4 1 2-3 1h-8l1-3 5-3 4-4z" fill="#DCDBDB"/>
<path transform="translate(19,76)" d="m0 0 5 1 6 3 5 5 6 3-1 3h-5l-5-5-11-9z" fill="#AAA9A9"/>
<path transform="translate(2042,186)" d="m0 0h6v20l-3-4-3-12z" fill="#D1D1D1"/>
<path transform="translate(1971,68)" d="m0 0 2 4v2l4-2-1 3 2 1 1-2-1 4-4 3h-2l1-4-9 9 1-4 3-3-2-10h2l1 5h2z" fill="#484849"/>
<path transform="translate(1959,116)" d="m0 0h5v5l-4-2-2 7-1-4h-2l1 4 4 4-9-2-6-5h3l2 1 1-3 3 2 2-4 2 1z" fill="#4F4E4F"/>
<path transform="translate(2e3 97)" d="m0 0 6 1 11 4 1 2-5-1h-3v2h6l-4 2-6-2-8-4z" fill="#C9C9C9"/>
<path transform="translate(2019,85)" d="m0 0h16l-2 2-13 5h-2v-2l-5 1v-2z" fill="#D5D5D5"/>
<path transform="translate(12,163)" d="m0 0 2 1 1 3 3 1-1 2-3-1v7h5v5l-7-1-1-4v-10z" fill="#BEBDBD"/>
<path transform="translate(1969,82)" d="m0 0h1l1 9 2 3-1 3-5 1-3-2 2-5v-2l-2-3z" fill="#E1E1E1"/>
<path transform="translate(75,32)" d="m0 0v3l-6 4-2 3-1 11-2-3 1 7 1 3-4-2-1-5v-6l5-8z" fill="#575757"/>
<path transform="translate(32)" d="m0 0h16l-4 4-7 3-4 2h-3l2-4 4-2-4-1z" fill="#BBBABA"/>
<path transform="translate(74,81)" d="m0 0 3 2v6l5-1-1 3h2l2 3 4 2-2 2-4-1-4 3v-3l3-3-2-2h-5v3l-4 1-1-5 5-1z" fill="#4B4A4B"/>
<path transform="translate(32,93)" d="m0 0 11 2 3 2-1 2-4-1-13 5-6 1 4-3 6-3-6 1 3-3h3z" fill="#1E1E1F"/>
<path transform="translate(74,69)" d="m0 0 1 4h3l2-4v5l-5 1 8 10-1 2-7-8-2 2-6-5 1-2 2 1v-3l2 2z" fill="#49494A"/>
<path transform="translate(2030,203)" d="m0 0 4 1 1 3 6 2v3l-9 1-5-9z" fill="#F4F4F4"/>
<path transform="translate(13,182)" d="m0 0 10 1v6h-3l-1 3h-7l1-4 3-1-2-1z" fill="#F6F6F6"/>
<path transform="translate(2040,86)" d="m0 0 3 3 5 14v6h-2l-1-3-4-11-2-7z" fill="#CFCECE"/>
<path transform="translate(2029,231)" d="m0 0h2l2 8-1 1h-14l5-4z" fill="#FAFAFA"/>
<path transform="translate(55,81)" d="m0 0 6 1 5 3 3 5 1 5-6-2-1-2h2l-1-2-5-2z" fill="#363637"/>
<path transform="translate(1971,4)" d="m0 0 11 1 6 3 1 2-7-1h-13l-6-1v-1l8-1z" fill="#B1B0B0"/>
<path transform="translate(20)" d="m0 0h10l2 4-6 5-5-5z" fill="#E1E0E0"/>
<path transform="translate(1960)" d="m0 0h19l4 2v1h-24z" fill="#DFDFDF"/>
<path transform="translate(100,4)" d="m0 0 12 1h12v2h3l-1 3-4 1-1-2-13-1-8-3z" fill="#bbb"/>
<path transform="translate(2020,213)" d="m0 0 3 3-1 5-3 3-4-1-2-3z" fill="#EDEDED"/>
<path transform="translate(1987,81)" d="m0 0h5l-5 7-1-3-2-1 1 4-4 1v2l2 1-5 2-1-4-1-2 5-3z" fill="#202021"/>
<path transform="translate(2012,93)" d="m0 0h3v3l5 2-2 1h-2l3 3-11-3-6-2 4-2z" fill="#1D1D1E"/>
<path transform="translate(15,163)" d="m0 0 3 1 3 7v5h-7v-7l4-1-4-1z" fill="#FAFAFA"/>
<path transform="translate(59,134)" d="m0 0 2 4h2l-1 3 4-1h7l-4 2-6 2h-6v-2l-4-2v-1h5l-1-3h2z" fill="#4D4D4D"/>
<path transform="translate(2017,171)" d="m0 0 1 2-3 6-6 3h-8l4-3 7-4 2-2z" fill="#C6C5C5"/>
<path transform="translate(33,64)" d="m0 0 2 3 4 10 4 5v5l-7-6 1-2-4-5z" fill="#383839"/>
<path transform="translate(2013,62)" d="m0 0h1l-1 13-4 4v3l-5 5-1-4h3l1-2-2-1 6-12z" fill="#2F2F30"/>
<path transform="translate(2038,28)" d="m0 0 2 1-7 11-4 12-2 1v-13l5-3z" fill="#A4A3A4"/>
<path transform="translate(34,11)" d="m0 0v3l-2 4-7 4-4 4 1-8 8-4 2-2z" fill="#1D1D1E"/>
<path transform="translate(138)" d="m0 0 4 1-6 3 7 1-2 2-10 1-8 6-2-4 5-1 3-3z" fill="#333233"/>
<path transform="translate(2e3 228)" d="m0 0 4 1 5 4-1 2-4-1-7 1v-4z" fill="#FCFCFC"/>
<path transform="translate(1903)" d="m0 0h5l14 10 3 2-1 2-4-2-5-4-10-1-2-2 7-1-7-3z" fill="#2F2F30"/>
<path transform="translate(30)" d="m0 0h2l1 2h5l-3 3-4 2-1 2 10-5 2 1-7 6h-4-7l5-5 2-3z" fill="#4A4A4A"/>
<path transform="translate(2033,75)" d="m0 0 6 2 7 7 2 3v8l-2-2-4-8-5-6z" fill="#DEDEDE"/>
<path transform="translate(2028,198)" d="m0 0 6 1 1 2h3l1 5-5-1-9-3z" fill="#F6F6F6"/>
<path transform="translate(32,221)" d="m0 0 4 2 5 5-3 2-5-1-4-5z" fill="#F0F0F0"/>
<path transform="translate(2038,213)" d="m0 0 6 2-3 3 1 3-5 1-4-6v-2z" fill="#F0F0F0"/>
<path transform="translate(1978,123)" d="m0 0 5 5-1 1-1 3-4-2 2 5h-3l1 2h-4l-2-5 4-1z" fill="#1D1D1E"/>
<path transform="translate(41,97)" d="m0 0 4 1 5 3 2 3-5-2-3-1-13 2-5 1 4-3z" fill="#969595"/>
<path transform="translate(1962,3)" d="m0 0m-4 1h4v2h-3v2h-2l1 2 2-1-2 8-2-1-1-9-5 2-4-1 8-3z" fill="#5E5D5E"/>
<path transform="translate(4,60)" d="m0 0h2l1 4h2v2l-9 5v-9l2-1 2 1z" fill="#D6D6D6"/>
<path transform="translate(1975,36)" d="m0 0 4 2 5 6 2 11-4 5-2-1 2-3v-10l-2-1-3-6-2-1z" fill="#4D4D4D"/>
<path transform="translate(2015,19)" d="m0 0 2 1 1 6 6 1-1 5-5 5-3-15z" fill="#232324"/>
<path transform="translate(86)" d="m0 0h11l15 5v1l-9-1-12-2-5-2z" fill="#848384"/>
<path transform="translate(2024,219)" d="m0 0 3 1 4 6-1 4-4-1-1-2h-2l-1-5z" fill="#EAEAEA"/>
<path transform="translate(142)" d="m0 0h9l-5 5h-11l3-3z" fill="#C3C3C3"/>
<path transform="translate(2009,63)" d="m0 0 1 3-7 14-7 8-2-1 6-7 6-12z" fill="#212122"/>
<path transform="translate(2047,20)" d="m0 0h1v14l-3 1v-2l-4-1 2-5 3 3-1-7z" fill="#D7D7D7"/>
<path transform="translate(43,114)" d="m0 0 11 1 2 7h-5v-4l-4-1-12 2 2-2z" fill="#1F1F20"/>
<path transform="translate(20,18)" d="m0 0h2v9l1 4-1 5-3-3-1-3v-8z" fill="#807F7F"/>
<path transform="translate(1896)" d="m0 0h7l8 4v1h-11l-4-3z" fill="#ccc"/>
<path transform="translate(2e3 62)" d="m0 0v3l-1 2 2 1-6 4-1-2-11 9-2-1 13-11z" fill="#3E3E3F"/>
<path transform="translate(0,47)" d="m0 0 3 1 4 4 2 1 2 4 5 3 2 1v3l-4-2-8-7-4-2-2-3z" fill="#8A8989"/>
<path transform="translate(1990,27)" d="m0 0h2l6 10 1 3 2 2-4 5v-3h-2l-2 7-1-4 2-6 2 1-1-6-5-8z" fill="#262627"/>
<path transform="translate(2025,76)" d="m0 0 2 1-9 8h-7l5-5z" fill="#BEBEBE"/>
<path transform="translate(92,234)" d="m0 0 6 1v1l-6 1 3 3-9-1h-13l2-2h10z" fill="#6F6E6F"/>
<path transform="translate(2028,182)" d="m0 0h5l-2 5 4 3v2h-4l-4-1v-8z" fill="#FEFEFE"/>
<path transform="translate(15,145)" d="m0 0 3 2v2h4l-1-3 4 1-1 1 8-1-1 2-3 1h-7l3 8-1 3-7-13z" fill="#454445"/>
<path transform="translate(101,106)" d="m0 0 4 2 1 3-3 5-1 7-9 6-1-2 3-2v-4h2v3l3-2v-7l3-2 1-4-3-1z" fill="#333334"/>
<path transform="translate(1990,49)" d="m0 0h1l-1 7-4 7-6 4 1-4 7-10z" fill="#DFDFDF"/>
<path transform="translate(2021,93)" d="m0 0h10l4 2-3 2-5 1-2 2-4-5z" fill="#8F8F8F"/>
<path transform="translate(2011,78)" d="m0 0 2 2-7 10h-3l-3 5-3 3 2-7 10-10-1-2z" fill="#A2A1A1"/>
<path transform="translate(0,16)" d="m0 0 2 4 1 7 2 2-1 4-4 2z" fill="#8C8B8B"/>
<path transform="translate(2040,20)" d="m0 0h5l-2 5-2 3-3 1-6 9-1-2 6-9 3-5z" fill="#616162"/>
<path transform="translate(29,18)" d="m0 0h3l-1 5-5 5-2 1-2-4 4-5z" fill="#D3D2D2"/>
<path transform="translate(75,91)" d="m0 0h5l3 4-4 3-5-1-1-4z" fill="#DEDDDD"/>
<path transform="translate(30,51)" d="m0 0 3 3 3 8 2 8-3 1-5-17z" fill="#D2D2D2"/>
<path transform="translate(2031,14)" d="m0 0h2v6l5-3-2 5-5 5-2-10h2z" fill="#313132"/>
<path transform="translate(6,12)" d="m0 0 6 8h2l1-3 3-1-2 11h-2l-7-10z" fill="#1D1D1E"/>
<path transform="translate(5)" d="m0 0h7l-2 4 3 3h4v2h-5l-3-3-3-1v7h-1z" fill="#676667"/>
<path transform="translate(74,78)" d="m0 0 7 6 3 3-1 4h-2l-1-2h-3l-2-7z" fill="#CDCCCC"/>
<path transform="translate(56,51)" d="m0 0 3 3 7 10-1 3-7-7-2-4z" fill="#E2E1E1"/>
<path transform="translate(11,75)" d="m0 0 2 1-6 5-6 9h-1l1-7 8-7z" fill="#D3D2D2"/>
<path transform="translate(2037,67)" d="m0 0 5 2 6 6v7l-5-5-3-4 4 2-5-5z" fill="#E5E5E5"/>
<path transform="translate(20,219)" d="m0 0 3 1 1 7h-3l-2-3zm5 4 5 4v2l-5-2-1-2z" fill="#F4F4F4"/>
<path transform="translate(1,185)" d="m0 0 2 2 1 3-2 11-2 1v-16z" fill="#C5C5C5"/>
<path transform="translate(1991,82)" d="m0 0h2l-2 4-7 7-2-1-1-3 3-2v-3l3 1v2z" fill="#B8B7B7"/>
<path transform="translate(1990,119)" d="m0 0 1 2 7 1v2l3 1v1l-9-1v3h-3l2-4-1-1-1-2z" fill="#585858"/>
<path transform="translate(11,194)" d="m0 0h2v4h5l1 2-1 2h-5l-4-1z" fill="#FBFBFB"/>
<path transform="translate(2017,182)" d="m0 0 2 2v10l1 4v7l-2-2-2-11v-9z" fill="#1D1D1E"/>
<path transform="translate(2014,18)" d="m0 0 5 1 5 6-1 3-5-2-2-6z" fill="#E1E1E1"/>
<path transform="translate(66,102)" d="m0 0h7l2 3-9 1-8 2v-2l4-1v-2z" fill="#727172"/>
<path transform="translate(64,78)" d="m0 0 5 2 3 3v5l-1 4v4l-3-1v-2-5h2l-1-5z" fill="#908F8F"/>
<path transform="translate(2029,193)" d="m0 0 6 1 2 4v4l-3-1-2-4-5-1z" fill="#FBFBFB"/>
<path transform="translate(1972,103)" d="m0 0 2 1-4 5-2 7 3 5-4-2-4-5v-2l3 1 4-8z" fill="#29292A"/>
<path transform="translate(95,101)" d="m0 0 4 2 2 3h-3l2 3-4-2-2 4-2-2 1-6h3z" fill="#545354"/>
<path transform="translate(59,38)" d="m0 0v3l-2 5 1 6-3 1-3-10 4-1z" fill="#727171"/>
<path transform="translate(2040,208)" d="m0 0 6 1-3 1 1 5-6-1h-5l1 4-2-1-1-5h10z" fill="#8E8D8D"/>
<path transform="translate(2,205)" d="m0 0 2 1 1 2-2 5 1 3-4 2v-9z" fill="#EAE9E9"/>
<path transform="translate(1959,116)" d="m0 0h5v5l-4-2-2 7-1-4h-2l-1 4-2-2 4-5 2 1z" fill="#303031"/>
<path transform="translate(1966,69)" d="m0 0h2l1 5h2v5l-6 7-1-3 4-4z" fill="#4D4C4D"/>
<path transform="translate(2009,59)" d="m0 0 1 2-5 12h-3v-3l4-8z" fill="#D3D3D3"/>
<path transform="translate(15,38)" d="m0 0 2 1v2l4 2 2 7-2 3-1-5h-2z" fill="#6A6969"/>
<path transform="translate(2019,85)" d="m0 0h9l-1 2-12 4h-2v-2z" fill="#979696"/>
<path transform="translate(2014,28)" d="m0 0h2l-1 6-2 6-3 2v-3l2-8z" fill="#8B8A8A"/>
<path transform="translate(63)" d="m0 0h7v1l11 1v1l-20 1z" fill="#959494"/>
<path transform="translate(2030,145)" d="m0 0 1 2-7 11-1-2 2-5-3-2-1-3 4 1 3 1z" fill="#313132"/>
<path transform="translate(5,115)" d="m0 0h6l2 2-5 2-3 4v-3h-2l-1-3z" fill="#565656"/>
<path transform="translate(1974,102)" d="m0 0h7l8 1 3 1-4 2 1 2-8-2v-2l-7-1z" fill="#646464"/>
<path transform="translate(5,86)" d="m0 0 2 4-3 13-2-2 1-6-2 1 2-6z" fill="#9E9D9D"/>
<path transform="translate(19,76)" d="m0 0 5 1 6 3 1 2-2 1h-3l-7-6z" fill="#DDDCDC"/>
<path transform="translate(2012,49)" d="m0 0h2l-2 4-5 6-5 2 2-4z" fill="#8B8A8A"/>
<path transform="translate(38,2)" d="m0 0h4v2l-9 5h-3l2-4z" fill="#E9E8E8"/>
<path transform="translate(2036,193)" d="m0 0 2 4 3 9v2h-7v-3l5 1-3-8z" fill="#5C5C5C"/>
<path transform="translate(9,164)" d="m0 0 3 2v12l1 5-2 1-1-2z" fill="#6E6D6D"/>
<path transform="translate(1986,135)" d="m0 0h8l-4 3 3 2-4 1-1-3-2 2v2l2 1h-3l-2-5z" fill="#343435"/>
<path transform="translate(2034,115)" d="m0 0h6v2l3 1v6l-4-1-1-4-5-2z" fill="#595859"/>
<path transform="translate(2040,86)" d="m0 0 3 3 1 4 1 11-2-2-4-14z" fill="#A1A0A0"/>
<path transform="translate(80,88)" d="m0 0 2 1-1 2h2l2 3 4 2-2 2-4-1-4 3v-3l3-3-4-4z" fill="#2E2E2F"/>
<path transform="translate(2045,53)" d="m0 0h3v10l-5-5-1-2h2z" fill="#B5B5B5"/>
<path transform="translate(2011,220)" d="m0 0 2 1-8 7-4 3-3-1 4-3 1-5 3 2z" fill="#242425"/>
<path transform="translate(2034,218)" d="m0 0 3 3 5 1v5l-4 1-4-8z" fill="#C1C0C0"/>
<path transform="translate(16,93)" d="m0 0h10l-3 4-11-1v-2z" fill="#B8B8B8"/>
<path transform="translate(20,85)" d="m0 0h8v3l5 1v2l-10-3-4-2z" fill="#9D9C9C"/>
<path transform="translate(43,59)" d="m0 0 6 5 4 5-2 1 2 3-4-2-2-3-2-5z" fill="#414141"/>
<path transform="translate(65,5)" d="m0 0h10v1l-10 3-6-1 2-2z" fill="#C4C4C4"/>
<path transform="translate(90,119)" d="m0 0 2 1 2 5h-3v-3h-2l1 7-4 1 1-7-2-1z" fill="#242425"/>
<path transform="translate(78,52)" d="m0 0v3l-1 11-2 3-1-13z" fill="#6B6A6B"/>
<path transform="translate(1967,52)" d="m0 0 3 1 4 6v2h-2l-1 7h-1l-2-13z" fill="#646364"/>
<path transform="translate(2033,163)" d="m0 0 3 3-1 4-6-1-1 4v-4l-2-1h6z" fill="#B6B6B6"/>
<path transform="translate(92,101)" d="m0 0 4 1 1 2-5 1 1 5h-3l-1-5z" fill="#DCDBDB"/>
<path transform="translate(2024,18)" d="m0 0 3 1 1 6-3 8-2-3 1-3z" fill="#A2A1A1"/>
<path transform="translate(0,227)" d="m0 0 5 1-1 4-2 3h-2z" fill="#D3D3D3"/>
<path transform="translate(2042,186)" d="m0 0h6v5l-4-1v6h-1z" fill="#ADACAC"/>
<path transform="translate(17,186)" d="m0 0h2v6h-7l1-4z" fill="#FEFEFE"/>
<path transform="translate(44,100)" d="m0 0 3 1v1l-15 5 5-5z" fill="#E2E1E1"/>
<path transform="translate(1970,83)" d="m0 0h1l2 7 4 2h-2l1 4h-5l1-3-2-2z" fill="#1D1D1E"/>
<path transform="translate(1983,84)" d="m0 0 2 4-4 1v2l2 1-5 2v-5z" fill="#1D1D1E"/>
<path transform="translate(5,54)" d="m0 0 8 6 5 6h-5l-3-5-5-5z" fill="#DEDEDE"/>
<path transform="translate(2e3 2)" d="m0 0 4 1 6 3 1 2-7-1-4-3z" fill="#ECECEC"/>
<path transform="translate(2013,114)" d="m0 0 4 3 5 1-3 3-8-1-2-2 7 1-3-3z" fill="#4A4A4A"/>
<path transform="translate(2033,69)" d="m0 0 8 1 5 5-1 2-3-3-4-1z" fill="#787878"/>
<path transform="translate(2047,47)" d="m0 0h1v6l-3 1-1 2-3-1z" fill="#1D1D1E"/>
<path transform="translate(49,44)" d="m0 0h2l4 9-1 3-4-5z" fill="#CBCACA"/>
<path transform="translate(75,32)" d="m0 0v3l-6 4-2 3-1 5-2-4 2-4z" fill="#3E3D3E"/>
<path transform="translate(1977,231)" d="m0 0 4 1v2h9l-4 2-9 1 3-1-3-3z" fill="#3B3A3B"/>
<path transform="translate(2042,218)" d="m0 0h4v2h2v5l-2-1v2h-2z" fill="#CECECE"/>
<path transform="translate(2023,176)" d="m0 0h1v6h3l1-2 3 1 1-3 1 3-9 3h-5l1-2h3z" fill="#959494"/>
<path transform="translate(2047,157)" d="m0 0h1v10l-2 1v-2h-2l2-8z" fill="#C5C5C5"/>
<path transform="translate(2036,98)" d="m0 0v3l-4 1v2l-4-1v-2l-2-1 9-1z" fill="#686868"/>
<path transform="translate(2009,70)" d="m0 0 1 3-4 7h-3l2-5 2-4z" fill="#D8D8D8"/>
<path transform="translate(2047,42)" d="m0 0h1l-1 7-8 7v-3l4-5h2z" fill="#7E7D7E"/>
<path transform="translate(2030,203)" d="m0 0 4 1 1 3-5 2-3-5z" fill="#FEFEFE"/>
<path transform="translate(2033,199)" d="m0 0 4 2 2 3v2l-5-1-4-3h3z" fill="#bbb"/>
<path transform="translate(10,183)" d="m0 0h4v3l3 1-4 2h-3z" fill="#ACABAB"/>
<path transform="translate(2015,176)" d="m0 0v3l-6 3h-8l4-3 7-1z" fill="#686768"/>
<path transform="translate(2034,171)" d="m0 0h1l-1 10-2-1v-3l-5-1v-2l5 1z" fill="#CFCECE"/>
<path transform="translate(4,163)" d="m0 0h2l2 4-1 11h-1l-2-11z" fill="#A09F9F"/>
<path transform="translate(18,222)" d="m0 0 2 2v5l-4 1-1-3z" fill="#D5D5D5"/>
<path transform="translate(6,203)" d="m0 0 2 1-3 8 4 1-7 1 2-6v-3h2z" fill="#797878"/>
<path transform="translate(16,176)" d="m0 0h3v5l-7-1v-2z" fill="#F9F9F9"/>
<path transform="translate(2036,164)" d="m0 0h1v9l-2 4-1-5-2 3 1-5h2v-5z" fill="#878686"/>
<path transform="translate(33,113)" d="m0 0v3l-2 2 4 2-7 1-3-3 4-1z" fill="#454546"/>
<path transform="translate(1946,104)" d="m0 0 2 1-5 5 2 4 1 3h-2l-3-4v-5z" fill="#1D1D1E"/>
<path transform="translate(1957,100)" d="m0 0 5 1v3l-4 2-2-5z" fill="#EDEDED"/>
<path transform="translate(2e3 44)" d="m0 0h2l-1 7-2 3h-2l1-5z" fill="#D1D1D1"/>
<path transform="translate(79,3)" d="m0 0 9 1 4 2h-2l-1 2-10-3z" fill="#1D1D1E"/>
</svg>
